<svg xmlns="http://www.w3.org/2000/svg" viewBox="0 0 512 512"><path fill="#64b5f6" stroke="#64b5f6" d="M274 97c12 0 25-1 38 2 7 1 16 2 23 6 22 7 42 22 57 39 9 12 19 24 23 38 8-1 15 2 23 2 8 2 17 6 25 11 23 11 38 34 45 58 2 7 4 14 3 22 0 9 0 16-2 24-5 23-21 45-41 58-10 6-20 12-31 13l-18 3c-12 3-4-6-1-12l7-22 2-18-2-19c-5-32-29-59-59-71l-18-6c-6-2-15 1-19-4-13-32-40-58-72-71l-23-8-21-3h-24c16-15 33-29 55-35 6-3 14-4 21-5 3-1 7 0 9-2Z"/><path fill="#bbdefb" stroke="#bbdefb" d="M197 139c24 0 48 5 70 16 29 14 52 40 63 70 47-2 91 37 95 83 7 43-21 88-63 102-30 9-63 5-94 6H76c-17-1-34-6-47-17a74 74 0 0 1-13-102c11-19 34-23 50-32 2-51 39-97 85-116 14-7 31-8 46-10Z"/></svg>
