<svg width="512" height="512" xmlns="http://www.w3.org/2000/svg"><path fill="#64B4F5" stroke="#64B4F5" opacity=".741" d="m275.5 96 10.5.5-10.5.5v-1zM291.5 96l9.5.5-9.5.5v-1zM268.5 97l3.5.5-3.5.5v-1zM305.5 97l2.5.5-2.5.5v-1zM261.5 98l3.5.5-3.5.5v-1zM311.5 98l3.5.5-3.5.5v-1zM257.5 99l1.5.5-1.5.5v-1zM317.5 99l1.5.5-1.5.5v-1zM253.5 100l1.5.5-1.5.5v-1zM321.5 100l1.5.5-1.5.5v-1zM249.5 101l1.5.5-1.5.5v-1zM325.5 101l1.5.5-1.5.5v-1zM246.5 102l1.5.5-1.5.5v-1zM329.5 102v1-1zM243.5 103l1.5.5-1.5.5v-1zM331.5 103l1.5.5-1.5.5v-1zM240.5 104l1.5.5-1.5.5v-1zM334.5 104l1.5.5-1.5.5v-1zM238.5 105v1-1zM337.5 105v1-1zM235.5 106v1-1zM340.5 106v1-1zM233.5 107v1-1zM342.5 107v1-1zM230.5 108l1.5.5-1.5.5v-1zM344.5 108v1-1zM228.5 109v1-1zM346.5 109l1.5.5-1.5.5v-1zM226.5 110v1-1zM349.5 110v1-1zM224.5 111v1-1zM351.5 111v1-1zM222.5 112q1.5 1-1 2-1.5-1 1-2zM353.5 112v1-1zM219.5 114v1-1zM356.5 114v1-1zM217.5 115v1-1zM358.5 115v1-1zM215.5 116q1.5 1-1 2-1.5-1 1-2zM360.5 116q2.5 1 1 2-2.5-1-1-2zM212.5 118q1.5 1-1 2-1.5-1 1-2zM363.5 118v1-1zM209.5 120q1.5 1-1 2-1.5-1 1-2zM366.5 120q2.5 1 1 2-2.5-1-1-2zM206.5 122l.5.5-2.5 2.5-.5-.5 2.5-2.5zM370.5 123q2.5 1 1 2-2.5-1-1-2zM202.5 125l.5.5-3.5 3.5-.5-.5 3.5-3.5zM373.5 125l2.5 2.5-.5.5-2.5-2.5.5-.5zM196.5 130l.5.5-9.5 9.5-.5-.5 9.5-9.5zM379.5 130l13.5 13.5-.5.5-13.5-13.5.5-.5zM395.5 147q2.5 1 1 2-2.5-1-1-2zM398.5 151q2.5 1 1 2-2.5-1-1-2zM401.5 155q2.5 1 1 2-2.5-1-1-2zM403.5 158q2.5 1 1 2-2.5-1-1-2zM405.5 161v1-1zM406.5 163q2.5 1 1 2-2.5-1-1-2zM408.5 166v1-1zM409.5 168l1.5 2.5h-1l-.5-2.5zM411.5 172v1-1zM412.5 174v1-1zM413.5 176v1-1zM414.5 178v1-1zM415.5 180l1 1 5.5.5-5.5.5q-2.5-1-1-2zM428.5 182l2.5.5-2.5.5v-1zM434.5 183l2.5.5-2.5.5v-1zM439.5 184l1.5.5-1.5.5v-1zM442.5 185l1.5.5-1.5.5v-1zM446.5 186v1-1zM449.5 187v1-1zM451.5 188l1.5.5-1.5.5v-1zM454.5 189v1-1zM456.5 190v1-1zM458.5 191v1-1zM460.5 192v1-1zM462.5 193v1-1zM464.5 194q2.5 1 1 2-2.5-1-1-2zM467.5 196v1-1zM469.5 197l2.5 2.5-.5.5-2.5-2.5.5-.5zM473.5 200l2.5 2.5-.5.5-2.5-2.5.5-.5zM478.5 204l11.5 11.5-.5.5-11.5-11.5.5-.5zM491.5 218q2.5 1 1 2-2.5-1-1-2zM494.5 222q2.5 1 1 2-2.5-1-1-2zM496.5 225v1-1zM498.5 228v1-1zM499.5 230v1-1zM500.5 232v1-1zM501.5 234v1-1zM502.5 236v1-1zM503.5 238v1-1zM504.5 240v1-1zM505.5 242l.5 1.5h-1l.5-1.5zM506.5 245l.5 1.5h-1l.5-1.5zM507.5 248v1-1zM508.5 251l.5 1.5h-1l.5-1.5zM509.5 255l.5 1.5h-1l.5-1.5zM510.5 260l.5 2.5h-1l.5-2.5zM511.5 266l.5 8.5h-1l.5-8.5zM511.5 280l.5 7.5h-1l.5-7.5zM510.5 291l.5 3.5h-1l.5-3.5zM509.5 297l.5 2.5h-1l.5-2.5zM508.5 301l.5 1.5h-1l.5-1.5zM507.5 305l.5 1.5h-1l.5-1.5zM506.5 308l.5 1.5h-1l.5-1.5zM505.5 311v1-1zM504.5 314v1-1zM503.5 316v1-1zM502.5 318v1-1zM501.5 320v1-1zM500.5 322v1-1zM499.5 324v1-1zM498.5 326q1.5 1-1 2-1.5-1 1-2zM496.5 329v1-1zM494.5 332q1.5 1-1 2-1.5-1 1-2zM491.5 336q1.5 1-1 2-1.5-1 1-2zM486.5 342l.5.5-5.5 5.5-.5-.5 5.5-5.5zM476.5 351q1.5 1-1 2-1.5-1 1-2zM472.5 354q1.5 1-1 2-1.5-1 1-2zM468.5 357v1-1zM466.5 358q1.5 1-1 2-1.5-1 1-2zM463.5 360v1-1zM459.5 362l1.5.5-1.5.5v-1zM457.5 363v1-1zM455.5 364v1-1zM453.5 365v1-1zM450.5 366l1.5.5-1.5.5v-1zM448.5 367v1-1zM445.5 368v1-1zM441.5 369l1.5.5-1.5.5v-1zM437.5 370l1.5.5-1.5.5v-1zM432.5 371l2.5.5-2.5.5v-1zM425.5 372l3.5.5-3.5.5v-1zM411.5 373l4.5.5-4.5.5v-1z"/><path fill="#64B5F6" stroke="#64B5F6" opacity=".996" d="m286.5 96 4.5.5-4.5.5v-1zM272.5 97v1-1zM304.5 97v1-1zM265.5 98v1-1zM310.5 98v1-1zM259.5 99v1-1zM316.5 99v1-1zM255.5 100v1-1zM320.5 100v1-1zM251.5 101v1-1zM324.5 101v1-1zM328.5 102v1-1zM242.5 104v1-1zM333.5 104v1-1zM239.5 105v1-1zM336.5 105v1-1zM236.5 106v1-1zM339.5 106v1-1zM229.5 109v1-1zM227.5 110v1-1zM348.5 110v1-1zM225.5 111v1-1zM350.5 111v1-1zM223.5 112v1-1zM352.5 112v1-1zM354.5 113v1-1zM218.5 115v1-1zM357.5 115v1-1zM216.5 116v1-1zM359.5 116v1-1zM213.5 118v1-1zM362.5 118v1-1zM364.5 119q2.5 1 1 2-2.5-1-1-2zM210.5 120v1-1zM207.5 122v1-1zM368.5 122v1-1zM203.5 125v1-1zM372.5 125v1-1zM376.5 128l3.5 3.5-.5.5-3.5-3.5.5-.5zM198.5 129q1.5 1-1 2-1.5-1 1-2zM391.5 143l3.5 3.5-.5.5-3.5-3.5.5-.5zM396.5 149q2.5 1 1 2-2.5-1-1-2zM399.5 153q2.5 1 1 2-2.5-1-1-2zM402.5 157v1-1zM404.5 160v1-1zM405.5 162v1-1zM407.5 165v1-1zM414.5 179v1-1zM415.5 181v1-1zM427.5 182v1-1zM433.5 183v1-1zM438.5 184v1-1zM445.5 186v1-1zM448.5 187v1-1zM453.5 189v1-1zM455.5 190v1-1zM457.5 191v1-1zM459.5 192v1-1zM461.5 193v1-1zM463.5 194v1-1zM466.5 196v1-1zM468.5 197v1-1zM472.5 200v1-1zM476.5 203q2.5 1 1 2-2.5-1-1-2zM489.5 216q2.5 1 1 2-2.5-1-1-2zM492.5 220q2.5 1 1 2-2.5-1-1-2zM495.5 224v1-1zM497.5 227v1-1zM498.5 229v1-1zM504.5 241v1-1zM505.5 244v1-1zM507.5 249v1-1zM508.5 253v1-1zM509.5 257v1-1zM510.5 263v1-1zM511.5 275l.5 4.5h-1l.5-4.5zM510.5 290v1-1zM508.5 300v1-1zM507.5 304v1-1zM506.5 307v1-1zM505.5 310v1-1zM504.5 313v1-1zM503.5 315v1-1zM502.5 317v1-1zM501.5 319v1-1zM500.5 321v1-1zM499.5 323v1-1zM498.5 325v1-1zM496.5 328v1-1zM495.5 330q1.5 1-1 2-1.5-1 1-2zM492.5 334q1.5 1-1 2-1.5-1 1-2zM489.5 338l.5.5-4.5 4.5-.5-.5 4.5-4.5zM480.5 347l.5.5-3.5 3.5-.5-.5 3.5-3.5zM473.5 353v1-1zM469.5 356v1-1zM464.5 359v1-1zM461.5 361v1-1zM452.5 365v1-1zM447.5 367v1-1zM444.5 368v1-1zM440.5 369v1-1zM436.5 370v1-1zM431.5 371v1-1zM423.5 372l1.5.5-1.5.5v-1z"/><path fill="#64B5F6" stroke="#64B5F6" d="M273.5 97h30l1 1 11 1 1 1 11 2 6 3 8 2 14 7 14 9q11.77 8.72 21.5 19.5l11 14 7 11 5 10 1 4.5h11.5q1.25 2.25 6 1l1 1h4l1 1h3l9 3 19 10q10.91 7.59 19.5 17.5l11 16 8 19 1 7 1 1v5l1 1v25l-1 1v6l-2 4v3l-3 9-7 14q-7.08 11.42-16.5 20.5l-14 11-18 9-6 2h-3l-1 1h-3l-1 1h-4l-1 1h-7l-1 1h-11l.5-1.5 8-15 1-5 2-3v-3l2-5v-5l1-1v-8l1-1v-11l-1-1v-8l-1-1-1-9-4-12-6-12q-8.79-14.71-21.5-25.5l-13-9-17-8-6-1-4-2h-4l-1-1h-6l-1-1h-9l-1.5-1.5-6-13-6-10q-10.25-14.75-23.5-26.5l-10-8-14-9-12-6h-2l-14-6h-3l-9-3-12-1-1-1-28.5-.5 17.5-15.5 14-9 14-7 8-2 6-3 11-2 1-1 12-1 1-1z"/><path fill="#91CCFA" stroke="#91CCFA" opacity=".208" d="m272.5 96 2.5.5-2.5.5v-1zM301.5 96l2.5.5-2.5.5v-1zM265.5 97l2.5.5-2.5.5v-1zM308.5 97l2.5.5-2.5.5v-1zM260.5 98v1-1zM315.5 98l1.5.5-1.5.5v-1zM256.5 99v1-1zM319.5 99l1.5.5-1.5.5v-1zM251.5 100l1.5.5-1.5.5v-1zM323.5 100l1.5.5-1.5.5v-1zM248.5 101v1-1zM327.5 101v1-1zM245.5 102v1-1zM330.5 102v1-1zM242.5 103v1-1zM333.5 103v1-1zM239.5 104v1-1zM336.5 104v1-1zM236.5 105l1.5.5-1.5.5v-1zM338.5 105l1.5.5-1.5.5v-1zM234.5 106v1-1zM341.5 106v1-1zM232.5 107v1-1zM343.5 107v1-1zM229.5 108v1-1zM345.5 108l1.5.5-1.5.5v-1zM227.5 109v1-1zM348.5 109v1-1zM225.5 110v1-1zM350.5 110v1-1zM223.5 111v1-1zM352.5 111v1-1zM221.5 112q1.5 1-1 2-1.5-1 1-2zM354.5 112q2.5 1 1 2-2.5-1-1-2zM218.5 114v1-1zM357.5 114v1-1zM216.5 115v1-1zM359.5 115v1-1zM361.5 116q2.5 1 1 2-2.5-1-1-2zM213.5 117v1-1zM211.5 118q1.5 1-1 2-1.5-1 1-2zM364.5 118q2.5 1 1 2-2.5-1-1-2zM208.5 120q1.5 1-1 2-1.5-1 1-2zM367.5 120l2.5 2.5-.5.5-2.5-2.5.5-.5zM204.5 123q1.5 1-1 2-1.5-1 1-2zM371.5 123q2.5 1 1 2-2.5-1-1-2zM200.5 126l.5.5-3.5 3.5-.5-.5 3.5-3.5zM375.5 126l3.5 3.5-.5.5-3.5-3.5.5-.5zM193.5 132l.5.5-7.5 7.5-1.5-.5 8.5-7.5zM382.5 132l7.5 7.5-.5.5-7.5-7.5.5-.5zM178.5 140l1.5.5-1.5.5v-1zM173.5 141l1.5.5-1.5.5v-1zM169.5 142l1.5.5-1.5.5v-1zM165.5 143l1.5.5-1.5.5v-1zM161.5 144l1.5.5-1.5.5v-1zM393.5 144l3.5 3.5-.5.5-3.5-3.5.5-.5zM158.5 145l1.5.5-1.5.5v-1zM156.5 146v1-1zM153.5 147v1-1zM150.5 148v1-1zM148.5 149v1-1zM397.5 149l2.5 2.5-.5.5-2.5-2.5.5-.5zM145.5 150l1.5.5-1.5.5v-1zM143.5 151v1-1zM141.5 152v1-1zM139.5 153v1-1zM400.5 153l2.5 2.5-.5.5-2.5-2.5.5-.5zM137.5 154q1.5 1-1 2l-2 1q-1.5-1 1-2l2-1zM132.5 157v1-1zM403.5 157q2.5 1 1 2-2.5-1-1-2zM130.5 158q1.5 1-1 2-1.5-1 1-2zM127.5 160q1.5 1-1 2-1.5-1 1-2zM405.5 160v1-1zM124.5 162v1-1zM406.5 162q2.5 1 1 2-2.5-1-1-2zM121.5 164q1.5 1-1 2-1.5-1 1-2zM408.5 165v1-1zM117.5 167q1.5 1-1 2-1.5-1 1-2zM409.5 167q2.5 1 1 2-2.5-1-1-2zM113.5 170l.5.5-7.5 7.5-.5-.5 7.5-7.5zM411.5 170l.5 1.5h-1l.5-1.5zM412.5 173v1-1zM413.5 175v1-1zM414.5 177v1-1zM415.5 179v1-1zM422.5 181l4.5.5-4.5.5v-1zM431.5 182l2.5.5-2.5.5v-1zM100.5 183l.5.5-5.5 5.5-.5-.5 5.5-5.5zM437.5 183v1-1zM441.5 184v1-1zM444.5 185l1.5.5-1.5.5v-1zM447.5 186l1.5.5-1.5.5v-1zM450.5 187v1-1zM453.5 188v1-1zM455.5 189v1-1zM94.5 190l.5.5-2.5 2.5-.5-.5 2.5-2.5zM457.5 190v1-1zM459.5 191v1-1zM461.5 192v1-1zM463.5 193v1-1zM465.5 194q2.5 1 1 2-2.5-1-1-2zM90.5 195q1.5 1-1 2-1.5-1 1-2zM468.5 196v1-1zM88.5 198q1.5 1-1 2-1.5-1 1-2zM471.5 198q2.5 1 1 2-2.5-1-1-2zM86.5 201q1.5 1-1 2-1.5-1 1-2zM475.5 201l2.5 2.5-.5.5-2.5-2.5.5-.5zM84.5 204l-.5 1.5-1.5 2.5.5-1.5 1.5-2.5zM481.5 206l6.5 6.5-.5.5-6.5-6.5.5-.5zM81.5 209v1-1zM80.5 211l-.5 1.5-.5 1.5-.5-1.5 1.5-1.5zM78.5 215v1-1zM490.5 216l2.5 2.5-.5.5-2.5-2.5.5-.5zM77.5 217v1-1zM76.5 219v1-1zM493.5 220l2.5 2.5-.5.5-2.5-2.5.5-.5zM75.5 221v1-1zM74.5 223l.5 1.5h-1l.5-1.5zM496.5 224v1-1zM73.5 226v1-1zM497.5 226q2.5 1 1 2-2.5-1-1-2zM72.5 228v1-1zM499.5 229v1-1zM71.5 231v1-1zM500.5 231l1.5 2.5h-1l-.5-2.5zM70.5 234v1-1zM502.5 235v1-1zM69.5 237l.5 1.5h-1l.5-1.5zM503.5 237v1-1zM504.5 239v1-1zM68.5 241v1-1zM505.5 241v1-1zM506.5 244v1-1zM67.5 245v1-1zM507.5 247v1-1zM66.5 249l.5 1.5h-1l.5-1.5zM508.5 250v1-1zM65.5 254l.5 2.5h-1l.5-2.5zM509.5 254v1-1zM510.5 257l.5 2.5h-1l.5-2.5zM64.5 262l.5 3.5h-1l.5-3.5zM511.5 264l.5 1.5h-1l.5-1.5zM61.5 267l1.5.5-1.5.5v-1zM56.5 268l1.5.5-1.5.5v-1zM53.5 269v1-1zM49.5 270l1.5.5-1.5.5v-1zM47.5 271v1-1zM44.5 272l1.5.5-1.5.5v-1zM42.5 273v1-1zM40.5 274v1-1zM38.5 275q1.5 1-1 2l-2 1q-1.5-1 1-2l2-1zM33.5 278q1.5 1-1 2-1.5-1 1-2zM30.5 280l.5.5-2.5 2.5-.5-.5 2.5-2.5zM25.5 284l.5.5-8.5 8.5-.5-.5 8.5-8.5zM511.5 288l.5 2.5h-1l.5-2.5zM16.5 294l.5.5-2.5 2.5-.5-.5 2.5-2.5zM510.5 295l.5 1.5h-1l.5-1.5zM13.5 298l.5.5-2.5 2.5-.5-.5 2.5-2.5zM509.5 300v1-1zM10.5 302v1-1zM508.5 303l.5 1.5h-1l.5-1.5zM9.5 304v1-1zM8.5 306l-.5 1.5-.5 1.5-.5-1.5 1.5-1.5zM507.5 307v1-1zM6.5 310v1-1zM506.5 310v1-1zM5.5 312v1-1zM505.5 312l.5 1.5h-1l.5-1.5zM4.5 314v1-1zM504.5 315v1-1zM3.5 317l.5 1.5H3l.5-1.5zM503.5 317v1-1zM502.5 319v1-1zM2.5 320l.5 1.5H2l.5-1.5zM501.5 321v1-1zM500.5 323v1-1zM1.5 324l.5 1.5H1l.5-1.5zM499.5 325v1-1zM497.5 328v1-1zM.5 329l.5 2.5H0l.5-2.5zM496.5 330q1.5 1-1 2-1.5-1 1-2zM494.5 333l.5.5-2.5 2.5-.5-.5 2.5-2.5zM491.5 337l.5.5-4.5 4.5-.5-.5 4.5-4.5zM480.5 348l.5.5-4.5 4.5-.5-.5 4.5-4.5zM.5 350l.5 2.5H0l.5-2.5zM474.5 353l.5.5-2.5 2.5-.5-.5 2.5-2.5zM1.5 356l.5 2.5H1l.5-2.5zM470.5 356q1.5 1-1 2-1.5-1 1-2zM467.5 358q1.5 1-1 2-1.5-1 1-2zM464.5 360v1-1zM2.5 361v1-1zM462.5 361q1.5 1-1 2-1.5-1 1-2zM458.5 363l1.5.5-1.5.5v-1zM3.5 364l.5 1.5H3l.5-1.5zM456.5 364v1-1zM454.5 365v1-1zM452.5 366v1-1zM4.5 367v1-1zM449.5 367v1-1zM446.5 368l1.5.5-1.5.5v-1zM443.5 369l1.5.5-1.5.5v-1zM5.5 370v1-1zM439.5 370l1.5.5-1.5.5v-1zM435.5 371l1.5.5-1.5.5v-1zM6.5 372v1-1zM429.5 372l2.5.5-2.5.5v-1zM416.5 373l6.5.5-6.5.5v-1zM7.5 374v1-1zM409.5 375q1.5 1-1 2-1.5-1 1-2zM8.5 376v1-1zM9.5 378v1-1zM406.5 379l.5.5-2.5 2.5-.5-.5 2.5-2.5zM10.5 380q2.5 1 1 2-2.5-1-1-2zM12.5 383q2.5 1 1 2-2.5-1-1-2zM401.5 385l.5.5-6.5 6.5-.5-.5 6.5-6.5zM14.5 386l3.5 3.5-.5.5-3.5-3.5.5-.5zM19.5 392l3.5 3.5-.5.5-3.5-3.5.5-.5zM391.5 394l.5.5-2.5 2.5-.5-.5 2.5-2.5zM387.5 397l.5.5-2.5 2.5-.5-.5 2.5-2.5zM26.5 398l3.5 3.5-.5.5-3.5-3.5.5-.5zM383.5 400v1-1zM381.5 401q1.5 1-1 2-1.5-1 1-2zM31.5 402q2.5 1 1 2-2.5-1-1-2zM378.5 403v1-1zM34.5 404q2.5 1 1 2-2.5-1-1-2zM376.5 404q1.5 1-1 2l-1.5-.5 2.5-1.5zM37.5 406v1-1zM372.5 406v1-1zM39.5 407v1-1zM370.5 407v1-1zM41.5 408v1-1zM368.5 408v1-1zM43.5 409v1-1zM365.5 409l1.5.5-1.5.5v-1zM45.5 410v1-1zM363.5 410v1-1zM48.5 411v1-1zM360.5 411v1-1zM50.5 412l1.5.5-1.5.5v-1zM357.5 412v1-1zM53.5 413l1.5.5-1.5.5v-1zM353.5 413v1-1zM58.5 414v1-1zM348.5 414l1.5.5-1.5.5v-1zM63.5 415l2.5.5-2.5.5v-1zM341.5 415l2.5.5-2.5.5v-1z"/><path fill="#A7D4F9" stroke="#A7D4F9" d="m188.5 139 5.5.5-5.5.5v-1zM211.5 139l6.5.5-6.5.5v-1zM221.5 140l3.5.5-3.5.5v-1zM228.5 141l2.5.5-2.5.5v-1zM233.5 142l1.5.5-1.5.5v-1zM237.5 143l1.5.5-1.5.5v-1zM241.5 144l1.5.5-1.5.5v-1zM244.5 145l1.5.5-1.5.5v-1zM247.5 146v1-1zM250.5 147v1-1zM253.5 148v1-1zM255.5 149v1-1zM257.5 150l1.5.5-1.5.5v-1zM260.5 151v1-1zM262.5 152v1-1zM264.5 153v1-1zM266.5 154v1-1zM268.5 155v1-1zM270.5 156q2.5 1 1 2-2.5-1-1-2zM273.5 158v1-1zM275.5 159q2.5 1 1 2-2.5-1-1-2zM278.5 161v1-1zM281.5 163q2.5 1 1 2-2.5-1-1-2zM284.5 165q2.5 1 1 2-2.5-1-1-2zM288.5 168l2.5 2.5-.5.5-2.5-2.5.5-.5zM294.5 173l12.5 12.5-.5.5-12.5-12.5.5-.5zM309.5 189l2.5 2.5-.5.5-2.5-2.5.5-.5zM312.5 193l2.5 2.5-.5.5-2.5-2.5.5-.5zM316.5 198q2.5 1 1 2-2.5-1-1-2zM318.5 201v1-1zM319.5 203q2.5 1 1 2-2.5-1-1-2zM321.5 206v1-1zM322.5 208q2.5 1 1 2-2.5-1-1-2zM324.5 211v1-1zM325.5 213v1-1zM326.5 215v1-1zM327.5 217v1-1zM328.5 219v1-1zM329.5 221v1-1zM330.5 223v1-1zM332.5 224l8.5.5-8.5.5v-1zM344.5 225l3.5.5-3.5.5v-1zM351.5 226l1.5.5-1.5.5v-1zM354.5 227l1.5.5-1.5.5v-1zM358.5 228l1.5.5-1.5.5v-1zM361.5 229l1.5.5-1.5.5v-1zM364.5 230v1-1zM367.5 231v1-1zM369.5 232v1-1zM371.5 233v1-1zM373.5 234v1-1zM375.5 235v1-1zM377.5 236v1-1zM379.5 237v1-1zM382.5 239v1-1zM384.5 240q2.5 1 1 2-2.5-1-1-2zM388.5 243q2.5 1 1 2-2.5-1-1-2zM392.5 246l11.5 11.5-.5.5-11.5-11.5.5-.5zM405.5 260l2.5 2.5-.5.5-2.5-2.5.5-.5zM408.5 264q2.5 1 1 2-2.5-1-1-2zM411.5 268v1-1zM412.5 270q2.5 1 1 2-2.5-1-1-2zM414.5 273v1-1zM415.5 275v1-1zM416.5 277v1-1zM417.5 279v1-1zM418.5 281v1-1zM419.5 283l.5 1.5h-1l.5-1.5zM420.5 286v1-1zM421.5 289v1-1zM422.5 292v1-1zM423.5 295l.5 1.5h-1l.5-1.5zM424.5 299l.5 2.5h-1l.5-2.5zM425.5 305l.5 2.5h-1l.5-2.5zM426.5 314l.5 11.5h-1l.5-11.5zM425.5 332l.5 2.5h-1l.5-2.5zM424.5 338l.5 2.5h-1l.5-2.5zM423.5 343l.5 1.5h-1l.5-1.5zM422.5 347l.5 1.5h-1l.5-1.5zM421.5 350v1-1zM420.5 353v1-1zM419.5 355l.5 1.5h-1l.5-1.5zM418.5 358v1-1zM417.5 360v1-1zM416.5 362v1-1zM415.5 364v1-1zM414.5 366v1-1zM413.5 368q1.5 1-1 2-1.5-1 1-2zM411.5 371v1-1z"/><path fill="#BADEFB" stroke="#BADEFB" opacity=".996" d="m194.5 139 1.5.5-1.5.5v-1zM209.5 139l1.5.5-1.5.5v-1zM184.5 140v1-1zM177.5 141v1-1zM227.5 141v1-1zM232.5 142v1-1zM236.5 143v1-1zM240.5 144v1-1zM161.5 145v1-1zM246.5 146v1-1zM249.5 147v1-1zM153.5 148v1-1zM252.5 148v1-1zM150.5 149v1-1zM259.5 151v1-1zM143.5 152v1-1zM261.5 152v1-1zM141.5 153v1-1zM263.5 153v1-1zM139.5 154v1-1zM269.5 156v1-1zM132.5 158v1-1zM274.5 159v1-1zM127.5 161v1-1zM279.5 162v1-1zM124.5 163v1-1zM283.5 165v1-1zM120.5 166v1-1zM286.5 167q2.5 1 1 2-2.5-1-1-2zM117.5 168q1.5 1-1 2-1.5-1 1-2zM291.5 171l2.5 2.5-.5.5-2.5-2.5.5-.5zM110.5 174l.5.5-5.5 5.5-.5-.5 5.5-5.5zM101.5 183l.5.5-2.5 2.5-.5-.5 2.5-2.5zM307.5 187q2.5 1 1 2-2.5-1-1-2zM95.5 190q1.5 1-1 2-1.5-1 1-2zM311.5 192v1-1zM91.5 195v1-1zM314.5 196q2.5 1 1 2-2.5-1-1-2zM89.5 198v1-1zM317.5 200v1-1zM87.5 201v1-1zM85.5 204v1-1zM320.5 205v1-1zM83.5 207v1-1zM82.5 209v1-1zM323.5 210v1-1zM326.5 216v1-1zM327.5 218v1-1zM328.5 220v1-1zM329.5 222v1-1zM75.5 223v1-1zM330.5 224l1.5.5-1.5.5v-1zM350.5 226v1-1zM73.5 228v1-1zM363.5 230v1-1zM72.5 231v1-1zM366.5 231v1-1zM71.5 234v1-1zM70.5 237v1-1zM378.5 237v1-1zM380.5 238v1-1zM69.5 240v1-1zM383.5 240v1-1zM386.5 242q2.5 1 1 2-2.5-1-1-2zM68.5 244v1-1zM390.5 245q2.5 1 1 2-2.5-1-1-2zM66.5 254v1-1zM404.5 259v1-1zM65.5 261v1-1zM407.5 263v1-1zM410.5 267v1-1zM56.5 269v1-1zM411.5 269v1-1zM49.5 271v1-1zM47.5 272v1-1zM413.5 272v1-1zM44.5 273v1-1zM42.5 274v1-1zM40.5 275v1-1zM35.5 278v1-1zM416.5 278v1-1zM32.5 280v1-1zM417.5 280v1-1zM29.5 282q1.5 1-1 2-1.5-1 1-2zM418.5 282v1-1zM420.5 287v1-1zM421.5 290v1-1zM422.5 293v1-1zM16.5 295q1.5 1-1 2-1.5-1 1-2zM423.5 297v1-1zM13.5 299v1-1zM11.5 302v1-1zM424.5 302v1-1zM10.5 304v1-1zM425.5 308v1-1zM6.5 312v1-1zM5.5 314v1-1zM4.5 317v1-1zM3.5 320v1-1zM2.5 324v1-1zM425.5 331v1-1zM424.5 337v1-1zM.5 340l.5 4.5H0l.5-4.5zM423.5 342v1-1zM422.5 346v1-1zM421.5 349v1-1zM420.5 352v1-1zM1.5 353v1-1zM418.5 357v1-1zM2.5 358v1-1zM417.5 359v1-1zM416.5 361v1-1zM4.5 365v1-1zM413.5 367v1-1zM6.5 370v1-1zM411.5 370v1-1zM7.5 372v1-1zM410.5 372v1-1zM8.5 374v1-1zM9.5 376v1-1zM407.5 376v1-1zM10.5 378v1-1zM404.5 380q1.5 1-1 2-1.5-1 1-2zM12.5 381v1-1zM14.5 384v1-1zM16.5 387l2.5 2.5-.5.5-2.5-2.5.5-.5zM391.5 393q1.5 1-1 2-1.5-1 1-2zM387.5 396q1.5 1-1 2-1.5-1 1-2zM27.5 398v1-1zM383.5 399v1-1zM31.5 401v1-1zM380.5 401v1-1zM378.5 402v1-1zM34.5 403v1-1zM37.5 405v1-1zM39.5 406v1-1zM41.5 407v1-1zM43.5 408v1-1zM366.5 408v1-1zM45.5 409v1-1zM363.5 409v1-1zM50.5 411v1-1zM53.5 412v1-1zM354.5 412v1-1zM57.5 413v1-1zM350.5 413v1-1zM62.5 414v1-1zM343.5 414l1.5.5-1.5.5v-1zM72.5 415l2.5.5-2.5.5v-1zM331.5 415l1.5.5-1.5.5v-1z"/><path fill="#BBDEFB" stroke="#BBDEFB" d="M196.5 139h12l1 1h11q1.25 2.25 6 1l1 1h4l1 1 11 2 3 2 8 2 9 5 4 1 13 8q14.75 10.25 26.5 23.5l10 13 8 13 5 12.5h13.5q1.25 2.25 6 1l1 1 7 1 6 3 5 1 16 9 8 6 11.5 11.5 11 16 8 20 1 8 1 1v5l1 1v21l-1 1v5l-1 1-1 8-8 20-12 17-10.5 10.5-16 11-16 7-10 2-1 1h-6l-1 1h-11l-1 1h-255l-1-1h-11l-1-1h-4l-1-1h-3l-6-2-18-10L19 390.5l-8-11-8-18-1-8-1-1v-23l1-1v-3l1-1v-3l2-6 4-9 8-12L27.5 284q7.86-6.64 18-11h2l6-3 11.5-2v-5.5l1-1v-6l1-1v-5l1-1 1-7 5-15 2-3v-2l5-10 11-17 12.5-14.5 19-16 11-7 14-7 5-1 3-2 9-3 7-1 1-1 11-1 1-1h10l1-1z"/><path fill="#BADDFB" stroke="#BADDFB" opacity=".776" d="m180.5 140 3.5.5-3.5.5v-1zM175.5 141l1.5.5-1.5.5v-1zM171.5 142l1.5.5-1.5.5v-1zM167.5 143l1.5.5-1.5.5v-1zM163.5 144l1.5.5-1.5.5v-1zM160.5 145v1-1zM157.5 146l1.5.5-1.5.5v-1zM154.5 147l1.5.5-1.5.5v-1zM151.5 148l1.5.5-1.5.5v-1zM149.5 149v1-1zM147.5 150v1-1zM144.5 151l1.5.5-1.5.5v-1zM142.5 152v1-1zM140.5 153v1-1zM138.5 154q1.5 1-1 2-1.5-1 1-2zM135.5 156v1-1zM133.5 157v1-1zM131.5 158q1.5 1-1 2-1.5-1 1-2zM128.5 160v1-1zM125.5 162v1-1zM123.5 163l.5.5-2.5 2.5-.5-.5 2.5-2.5zM119.5 166q1.5 1-1 2-1.5-1 1-2zM115.5 169l.5.5-4.5 4.5-.5-.5 4.5-4.5zM105.5 178l.5.5-4.5 4.5-.5-.5 4.5-4.5zM98.5 186l.5.5-3.5 3.5-.5-.5 3.5-3.5zM93.5 192l.5.5-2.5 2.5-.5-.5 2.5-2.5zM90.5 196q1.5 1-1 2-1.5-1 1-2zM88.5 199q1.5 1-1 2-1.5-1 1-2zM86.5 202q1.5 1-1 2-1.5-1 1-2zM84.5 205v1-1zM82.5 208v1-1zM81.5 210v1-1zM80.5 212v1-1zM79.5 214v1-1zM78.5 216v1-1zM77.5 218v1-1zM76.5 220v1-1zM75.5 222v1-1zM74.5 225v1-1zM73.5 227v1-1zM72.5 229l.5 1.5h-1l.5-1.5zM71.5 232l.5 1.5h-1l.5-1.5zM70.5 235l.5 1.5h-1l.5-1.5zM69.5 239v1-1zM68.5 242l.5 1.5h-1l.5-1.5zM67.5 246l.5 2.5h-1l.5-2.5zM66.5 251l.5 2.5h-1l.5-2.5zM65.5 257l.5 3.5h-1l.5-3.5zM64.5 266l.5 2-2-.5 1.5-1.5zM58.5 268l2.5.5-2.5.5v-1zM54.5 269l1.5.5-1.5.5v-1zM51.5 270l1.5.5-1.5.5v-1zM48.5 271v1-1zM46.5 272v1-1zM43.5 273v1-1zM41.5 274v1-1zM39.5 275q1.5 1-1 2-1.5-1 1-2zM36.5 277v1-1zM34.5 278q1.5 1-1 2-1.5-1 1-2zM31.5 280q1.5 1-1 2-1.5-1 1-2zM27.5 283l.5.5L17.5 294l-.5-.5L27.5 283zM14.5 297v1-1zM12.5 300q1.5 1-1 2-1.5-1 1-2zM10.5 303v1-1zM9.5 305v1-1zM8.5 307v1-1zM7.5 309v1-1zM6.5 311v1-1zM5.5 313v1-1zM4.5 315l.5 1.5H4l.5-1.5zM3.5 319v1-1zM2.5 322l.5 1.5H2l.5-1.5zM1.5 326l.5 2.5H1l.5-2.5zM.5 332l.5 7.5H0l.5-7.5zM.5 345l.5 4.5H0l.5-4.5zM1.5 354l.5 1.5H1l.5-1.5zM2.5 359l.5 1.5H2l.5-1.5zM3.5 362l.5 1.5H3l.5-1.5zM4.5 366v1-1zM5.5 368l.5 1.5H5l.5-1.5zM6.5 371v1-1zM7.5 373v1-1zM410.5 373l.5.5-2.5 2.5-.5-.5 2.5-2.5zM8.5 375v1-1zM9.5 377v1-1zM407.5 377l.5.5-2.5 2.5-.5-.5 2.5-2.5zM10.5 379q2.5 1 1 2-2.5-1-1-2zM12.5 382q2.5 1 1 2-2.5-1-1-2zM403.5 382l.5.5-11.5 11.5-.5-.5 11.5-11.5zM14.5 385q2.5 1 1 2-2.5-1-1-2zM18.5 390l7.5 7.5-.5.5-7.5-7.5.5-.5zM389.5 395q1.5 1-1 2-1.5-1 1-2zM385.5 398q1.5 1-1 2-1.5-1 1-2zM28.5 399l2.5 2.5-.5.5-2.5-2.5.5-.5zM382.5 400v1-1zM32.5 402q2.5 1 1 2-2.5-1-1-2zM379.5 402v1-1zM377.5 403v1-1zM35.5 404q2.5 1 1 2-2.5-1-1-2zM375.5 404v1-1zM373.5 405v1-1zM38.5 406v1-1zM371.5 406v1-1zM40.5 407v1-1zM369.5 407v1-1zM42.5 408v1-1zM367.5 408v1-1zM44.5 409v1-1zM364.5 409v1-1zM46.5 410l1.5.5-1.5.5v-1zM361.5 410l1.5.5-1.5.5v-1zM49.5 411v1-1zM358.5 411l1.5.5-1.5.5v-1zM52.5 412v1-1zM355.5 412l1.5.5-1.5.5v-1zM55.5 413l1.5.5-1.5.5v-1zM351.5 413l1.5.5-1.5.5v-1zM59.5 414l2.5.5-2.5.5v-1zM345.5 414l2.5.5-2.5.5v-1zM66.5 415l5.5.5-5.5.5v-1zM333.5 415l7.5.5-7.5.5v-1z"/></svg>